<svg viewBox="0 0 512 512" xmlns="http://www.w3.org/2000/svg"><path d="M441.7 392.1L281 484.9c-15.5 8.9-34.5 8.9-50 0L70.3 392.1c-15.5-8.9-25-25.4-25-43.3V163.2c0-17.9 9.5-34.4 25-43.3L231 27.1c15.5-8.9 34.5-8.9 50 0l160.7 92.8c15.5 8.9 25 25.4 25 43.3v185.6c0 17.8-9.5 34.4-25 43.3z" fill="#3B5999" stroke="#3B5999" stroke-miterlimit="10"/><path d="M273.9 345.2c0 24.1-.1 48.1.1 72.2 0 2.6-.6 3.3-3.3 3.3-20.5-.1-41-.1-61.5 0-2.8 0-3.5-.8-3.5-3.5.1-47.8.1-95.7.1-143.5 0-2.6-.5-3.6-3.3-3.5-9.1.2-18.1 0-27.2.1-2.1 0-2.7-.6-2.7-2.7.1-15.1.1-30.3 0-45.4 0-2.3.8-2.8 2.9-2.7 9.1.1 18.1-.1 27.2.1 2.6.1 3.1-.8 3.1-3.2-.1-13.3-.1-26.7 0-40 .1-11.5 2.4-22.4 9.3-32.1 7.2-10.3 17.3-16.5 29-20.2 8.8-2.8 17.8-4 27-4.1 17.3-.2 34.6-.1 51.9-.2 2.4 0 3 .8 3 3.1-.1 15.5-.1 31 0 46.6 0 2.6-.8 3.1-3.2 3.1-10.9-.1-21.9-.1-32.8-.1-9.6 0-15.9 6.3-15.9 15.8 0 9.4.1 18.9-.1 28.4 0 2.3.7 2.9 2.9 2.9 15.3-.1 30.6 0 46-.1 2.3 0 3.2.5 2.9 3-1.7 15.5-3.1 31-5.9 46.4-.4 1.9-1.6 1.4-2.6 1.4h-27.2c-4.4 0-8.8.1-13.1-.1-2.4-.1-3.2.6-3.1 3.1v71.9z" fill="#FFF"/></svg>