<svg viewBox="0 0 512 512" xmlns="http://www.w3.org/2000/svg"><path d="M441.7 392.1L281 484.9c-15.5 8.9-34.5 8.9-50 0L70.3 392.1c-15.5-8.9-25-25.4-25-43.3V163.2c0-17.9 9.5-34.4 25-43.3L231 27.1c15.5-8.9 34.5-8.9 50 0l160.7 92.8c15.5 8.9 25 25.4 25 43.3v185.6c0 17.8-9.5 34.4-25 43.3z" fill="#BC2A8D"/><g fill="#FFF"><path d="M378.7 256v51.7c0 29.2-14.2 49.5-39.6 62.6-10.4 5.4-21.7 7.8-33.4 7.8-33.2 0-66.5.6-99.7-.2-26.7-.6-48.1-12.3-62.5-35.3-6-9.6-8.9-20.2-9-31.5 0-36.4-.2-72.9 0-109.3.2-25 12.4-43.4 33.1-56.5 12.3-7.7 25.9-11.2 40.4-11.3 32.3 0 64.6-.2 97 0 25 .2 45.7 9.9 61 30 8.4 11.1 12.6 23.9 12.6 37.9.1 18 .1 36 .1 54.1zm-18.2.2v-54.4c0-9.8-2.9-18.8-8.7-26.6-11.3-15.2-26.9-22.7-45.5-22.9-32.8-.4-65.6-.1-98.5-.1-10.2 0-19.9 2.4-28.7 7.5-17 9.8-26.5 24.2-26.4 44.3.1 35.3 0 70.7 0 106.1 0 9.9 2.9 19 8.8 26.9 11.3 15.2 26.9 22.6 45.5 22.8 33 .4 66 .1 98.9.1 7.5 0 14.8-1.6 21.8-4.4 18.5-7.5 33.4-24.8 32.8-47.9-.4-17.2 0-34.3 0-51.4z"/><path d="M256.6 308.1c-31.9-.1-57.3-25.5-57.2-57.2.1-30.9 26-56.1 57.6-56 31.6.1 57.2 25.6 57.1 56.9 0 31.2-25.8 56.4-57.5 56.3zm.4-95c-21.7 0-39.2 17.1-39.3 38.3 0 21.1 17.5 38.4 38.9 38.5 21.7 0 39.3-17.1 39.4-38.2 0-21.2-17.5-38.6-39-38.6zM332.9 190.3c0 6.9-5.5 12.6-12.2 12.5-6.6 0-12-5.8-11.9-12.7 0-6.8 5.5-12.4 12.1-12.4s12 5.7 12 12.6z"/></g></svg>