<svg viewBox="0 0 512 512" xmlns="http://www.w3.org/2000/svg"><path d="M441.7 392.1L281 484.9c-15.5 8.9-34.5 8.9-50 0L70.3 392.1c-15.5-8.9-25-25.4-25-43.3V163.2c0-17.9 9.5-34.4 25-43.3L231 27.1c15.5-8.9 34.5-8.9 50 0l160.7 92.8c15.5 8.9 25 25.4 25 43.3v185.6c0 17.8-9.5 34.4-25 43.3z" fill="#007BB5"/><g fill="#FFF"><path d="M272.7 240.6c2.6-3.2 4.6-6.3 7.1-8.9 4.8-4.9 10.3-8.4 16.8-10.6 7.2-2.4 14.6-2.8 21.9-2 11.9 1.1 22.3 5.8 30.3 14.8 3.8 4.2 6.6 9.1 8.6 14.4 1.6 4.1 2.8 8.3 3.6 12.7.6 3.7 1.4 7.5 1.4 11.3 0 26.4 0 52.9.1 79.3 0 1.3-.3 1.7-1.7 1.7-12.1 0-24.2-.1-36.3 0-1.7 0-2-.6-2-2.1v-69.3c0-4.2-.3-8.5-1.5-12.5-2.1-6.8-6.3-11.7-13.2-14.2-5.8-2.1-11.7-2.5-17.6-1-6.5 1.7-11.1 5.9-14.4 11.7-1.8 3.2-2.5 6.6-2.9 10.3-.3 2.8-.3 5.6-.3 8.4V351c0 1.9-.5 2.3-2.3 2.3-11.7-.1-23.4-.1-35.1 0-2.1 0-2.4-.7-2.4-2.5.1-40.8.1-81.5.1-122.3 0-4.8 0-4.8 4.8-4.8h33c1.5 0 1.9.5 1.9 2 .1 4.7.1 9.5.1 14.9zM168.1 289v-62.1c0-1.7.4-2.3 2.2-2.3 11.9.1 23.8.1 35.7 0 1.8 0 2.2.6 2.2 2.3v124c0 1.8-.4 2.4-2.3 2.4-11.9-.1-23.8-.1-35.7 0-1.7 0-2.1-.5-2.1-2.2.1-20.7 0-41.4 0-62.1zM187.6 158.7c12.9-.4 20.4 9.1 20.5 20.3 0 11.5-8.1 20.1-20.7 20.1-12.2 0-20.3-8.4-20.4-20.3 0-11.3 8.2-20.5 20.6-20.1z"/></g></svg>