<svg viewBox="0 0 512 512" xmlns="http://www.w3.org/2000/svg"><path d="M441.7 392.1L281 484.9c-15.5 8.9-34.5 8.9-50 0L70.3 392.1c-15.5-8.9-25-25.4-25-43.3V163.2c0-17.9 9.5-34.4 25-43.3L231 27.1c15.5-8.9 34.5-8.9 50 0l160.7 92.8c15.5 8.9 25 25.4 25 43.3v185.6c0 17.8-9.5 34.4-25 43.3z" fill="#55ACEE"/><path d="M133.3 333.5c27.5 2.6 51.8-4.3 74-20.9-5.8-.4-10.8-1.2-15.6-3-12.7-4.6-22.2-12.8-28.3-24.8-.9-1.7-1.6-3.5-2.4-5.3-.9-1.8 0-2.1 1.6-1.8 6.3 1 12.5.6 18.7-.7.1 0 .2-.2.4-.3.1-.7-.4-.8-.9-.9-14-3.5-24.5-11.7-31.7-24.1-4.1-7-6.2-14.6-6.4-22.7 0-2.1.5-2.3 2.3-1.5 6.2 3 12.7 4.8 20.2 5.1-3.6-2.9-6.9-5.5-9.6-8.7-9.9-11.7-14-25.1-12-40.3.7-5.7 2.5-10.9 5-16.1.9-1.9 1.6-2.1 3-.4 8.1 9.8 17.5 18.2 27.9 25.5 7.8 5.5 16.1 10 24.8 13.8 11.3 4.9 23 8.2 35.1 10.2 4.1.6 8.2.8 12.2 1.3 1.9.2 2.2-.5 1.8-2.2-2-10.5-.7-20.8 3.9-30.4 7.2-15 19-24.6 35.4-28.1 16.2-3.4 30.6.6 43.4 10.9 4.1 6.2 9.3 2.6 14 1.3 7.5-2.1 14.5-5.3 21.4-9-3.5 11.3-10.5 19.9-20.2 26.7 9.4-.6 18.1-3.5 27.4-7.2-2.5 3.9-5 7-7.5 10-4.7 5.6-10.1 10.4-15.9 14.8-1.2.9-1.5 1.8-1.5 3.2.3 10.2-.5 20.3-2.4 30.3-1.9 10.5-5 20.6-9.1 30.4-4.6 10.9-10.4 21.3-17.5 30.8-8.8 11.9-19.2 22.3-31.3 30.9-16.3 11.6-34.4 19.2-54 22.9-12.3 2.4-24.7 3.1-37.3 2.5-9.7-.5-19.2-2-28.6-4.4-11.7-3-22.9-7.5-33.4-13.5-2.2-1.2-4.7-2.1-6.9-4.3z" fill="#FFF"/></svg>